<svg xmlns="http://www.w3.org/2000/svg" width="71" height="229" viewBox="0 0 71 229">
  <path fill="#F59023" d="M35.2875034,536.055252 C33.0974502,525.758373 32,515.727395 32,505.965547 C32,490.106807 35.4049993,474.816937 41.1991835,462.087343 C40.3396808,456.796383 40.0326455,450.805251 40.2121452,444.210243 C40.6320253,428.783404 43.9200967,410.267113 47.9531784,396.88181 C52.3271452,382.365151 59.6964607,368.984605 70.0305494,356.770463 L77.6647065,363.229537 C68.2027306,374.412906 61.5006839,386.581885 57.5279909,399.766765 C53.7372694,412.347705 50.6026144,430.000053 50.2084433,444.482317 C50.184882,445.347986 50.1708122,446.198938 50.1661808,447.034916 C55.3599395,440.485478 61.031768,436.572294 66.3353481,436.572294 C80.3460714,436.572294 87.3891292,449.305375 84.2433316,465.927947 C80.9096294,483.543417 71.7416513,491.672842 56.8211886,486.354358 L56.6804743,486.304199 L56.5430055,486.24573 C52.17997,484.389994 48.7790685,481.275062 46.2347791,477.055048 C43.5250125,485.986651 42,495.843127 42,505.965547 C42,514.536002 42.9163773,523.364517 44.7532434,532.453832 L64.5327861,524.92833 L58.5,585 L14.0623359,544.130769 L35.2875034,536.055252 Z M51.669652,463.375183 C53.2925327,470.481459 56.2089789,475.165112 60.3275663,476.987364 C68.2755698,479.761401 72.101875,476.305606 74.4177357,464.068467 C76.5305937,452.904006 73.0283296,446.572294 66.3353481,446.572294 C65.9656282,446.572294 65.3354945,446.760687 64.5025237,447.217731 C63.4184915,447.812531 62.183358,448.764481 60.875488,450.045665 C57.9466616,452.91473 54.919016,457.159898 52.2066468,462.331598 C52.0256135,462.676776 51.8466046,463.024658 51.669652,463.375183 Z" transform="translate(-14 -356)"/>
</svg>
