<svg xmlns="http://www.w3.org/2000/svg" width="716" height="597" viewBox="0 0 716 597">
  <path fill="#1C1C1C" d="M512 261L512 549C512 575.5 490.5 597 464 597L48 597C21.5 597 0 575.5 0 549L0 261C0 234.5 21.5 213 48 213L136 213 148.3 180.1C155.3 161.4 173.2 149 193.2 149L318.7 149C338.7 149 356.6 161.4 363.6 180.1L376 213 464 213C490.5 213 512 234.5 512 261zM376 405C376 338.8 322.2 285 256 285 189.8 285 136 338.8 136 405 136 471.2 189.8 525 256 525 322.2 525 376 471.2 376 405zM344 405C344 453.5 304.5 493 256 493 207.5 493 168 453.5 168 405 168 356.5 207.5 317 256 317 304.5 317 344 356.5 344 405zM619.5 96L696 96C707.045695 96 716 104.954305 716 116L716 121C716 132.045695 707.045695 141 696 141L619.5 141 619.5 218C619.5 229.045695 610.545695 238 599.5 238L594.5 238C583.454305 238 574.5 229.045695 574.5 218L574.5 141 498 141C486.954305 141 478 132.045695 478 121L478 116C478 104.954305 486.954305 96 498 96L574.5 96 574.5 20C574.5 8.954305 583.454305 2.02906125e-15 594.5 0L599.5 0C610.545695-2.02906125e-15 619.5 8.954305 619.5 20L619.5 96z"/>
</svg>
