<svg xmlns="http://www.w3.org/2000/svg" preserveAspectRatio="none" width="375" height="174" viewBox="0 0 375 174">
  <path fill="#1C1C1C" d="M1.42108547e-13,0 L375,0 C375,82 375,133 375,153 C354.110385,153 344.473226,175.513063 320.800227,173 C297.127228,170.486937 300.800227,153 280.800227,153 C260.800227,153 260.800227,173 240.800227,173 C220.800227,173 220.800227,153 200.800227,153 C180.800227,153 180.800227,173 160.800227,173 C140.800227,173 140.800227,153 120.800227,153 C100.800227,153 100.800227,173 80.8002266,173 C60.8002266,173 59.0493769,153 40.8002266,153 C22.5510762,153 15.4744452,173 1.42108547e-13,173 C1.42108547e-13,159.666667 1.42108547e-13,102 1.42108547e-13,0 Z"/>
</svg>
