<svg xmlns="http://www.w3.org/2000/svg" width="38" height="37" viewBox="0 0 38 37">
  <g fill="none" fill-rule="evenodd" transform="translate(.253)">
    <rect width="37" height="37" x=".5" fill="#F59023" fill-rule="nonzero" rx="18.5"/>
    <path fill="#000" d="M10.8489487,11.6042476 L10.5451594,11.3026614 C10.3438078,11.1027981 10.0173311,11.1027981 9.81593643,11.3026614 L6.23045031,14.8822868 L6.23045031,0.511813758 C6.23045031,0.22916461 5.9995791,0 5.71482506,0 L5.28513735,0 C5.0003833,0 4.76951209,0.22916461 4.76951209,0.511813758 L4.76951209,14.8822868 L1.18402597,11.3026614 C0.982674308,11.1027981 0.656197586,11.1027981 0.454802956,11.3026614 L0.151013746,11.6042476 C-0.0503379152,11.8041109 -0.0503379152,12.1281743 0.151013746,12.3280376 L5.13539118,17.2962564 C5.33674284,17.4961197 5.66321956,17.4961197 5.86461419,17.2962564 L10.8489916,12.3280376 C11.0503433,12.1281743 11.0503433,11.8041109 10.8489487,11.6042476 Z" transform="matrix(0 1 1 0 10 13.5)"/>
  </g>
</svg>
